solid 3d_7688_mount
facet normal 0.0 0.0 -1.0
  outer loop
    vertex 25.999999999999996 49.75 0.0
    vertex -2.5 44.75 0.0
    vertex -2.5 49.75 0.0
  endloop
endfacet
facet normal 0.0 0.0 -1.0
  outer loop
    vertex -2.5 44.75 0.0
    vertex 25.999999999999996 49.75 0.0
    vertex 0.0 44.75 0.0
  endloop
endfacet
facet normal 0.0 0.0 -1.0
  outer loop
    vertex 0.0 44.75 0.0
    vertex 25.999999999999996 49.75 0.0
    vertex 3.9999999999999996 44.75 0.0
  endloop
endfacet
facet normal 0.0 0.0 -1.0
  outer loop
    vertex 0.0 44.75 0.0
    vertex 3.9999999999999996 44.75 0.0
    vertex 0.0 18.25 0.0
  endloop
endfacet
facet normal 0.0 0.0 -1.0
  outer loop
    vertex 3.9999999999999996 44.75 0.0
    vertex 25.999999999999996 49.75 0.0
    vertex 25.999999999999996 44.75 0.0
  endloop
endfacet
facet normal 0.0 0.0 -1.0
  outer loop
    vertex 25.999999999999996 44.75 0.0
    vertex 25.999999999999996 49.75 0.0
    vertex 44.0 46.5 0.0
  endloop
endfacet
facet normal 0.0 0.0 -1.0
  outer loop
    vertex 25.999999999999996 44.75 0.0
    vertex 44.0 46.5 0.0
    vertex 29.99999999999999 44.02777777777778 0.0
  endloop
endfacet
facet normal 0.0 0.0 -1.0
  outer loop
    vertex 25.999999999999996 44.75 0.0
    vertex 29.99999999999999 44.02777777777778 0.0
    vertex 25.999999999999996 18.25 0.0
  endloop
endfacet
facet normal 0.0 0.0 -1.0
  outer loop
    vertex 25.999999999999996 18.25 0.0
    vertex 29.99999999999999 44.02777777777778 0.0
    vertex 25.999999999999996 13.249999999999998 0.0
  endloop
endfacet
facet normal 0.0 0.0 -1.0
  outer loop
    vertex 29.99999999999999 44.02777777777778 0.0
    vertex 44.0 46.5 0.0
    vertex 40.0 42.22222222222222 0.0
  endloop
endfacet
facet normal 0.0 0.0 -1.0
  outer loop
    vertex 40.0 42.22222222222222 0.0
    vertex 44.0 46.5 0.0
    vertex 40.0 20.77777777777778 0.0
  endloop
endfacet
facet normal 0.0 0.0 -1.0
  outer loop
    vertex 25.999999999999996 13.249999999999998 0.0
    vertex 30.0 18.972222222222225 0.0
    vertex 44.0 16.499999999999996 0.0
  endloop
endfacet
facet normal 0.0 0.0 -1.0
  outer loop
    vertex 30.0 18.972222222222225 0.0
    vertex 25.999999999999996 13.249999999999998 0.0
    vertex 29.99999999999999 44.02777777777778 0.0
  endloop
endfacet
facet normal 0.0 0.0 -1.0
  outer loop
    vertex 44.0 16.499999999999996 0.0
    vertex 30.0 18.972222222222225 0.0
    vertex 40.0 20.77777777777778 0.0
  endloop
endfacet
facet normal 0.0 0.0 -1.0
  outer loop
    vertex 44.0 16.499999999999996 0.0
    vertex 40.0 20.77777777777778 0.0
    vertex 44.0 46.5 0.0
  endloop
endfacet
facet normal 0.0 0.0 -1.0
  outer loop
    vertex 0.0 18.25 0.0
    vertex -2.5 13.249999999999998 0.0
    vertex -2.5 18.25 0.0
  endloop
endfacet
facet normal 0.0 0.0 -1.0
  outer loop
    vertex -2.5 13.249999999999998 0.0
    vertex 0.0 18.25 0.0
    vertex 25.999999999999996 13.249999999999998 0.0
  endloop
endfacet
facet normal 0.0 0.0 -1.0
  outer loop
    vertex 25.999999999999996 13.249999999999998 0.0
    vertex 0.0 18.25 0.0
    vertex 3.9999999999999996 18.249999999999996 0.0
  endloop
endfacet
facet normal 0.0 0.0 -1.0
  outer loop
    vertex 3.9999999999999996 18.249999999999996 0.0
    vertex 0.0 18.25 0.0
    vertex 3.9999999999999996 44.75 0.0
  endloop
endfacet
facet normal 0.0 0.0 -1.0
  outer loop
    vertex 25.999999999999996 13.249999999999998 0.0
    vertex 3.9999999999999996 18.249999999999996 0.0
    vertex 25.999999999999996 18.25 0.0
  endloop
endfacet
facet normal 0.0 0.0 1.0
  outer loop
    vertex 0.0 44.75 3.9999999999999996
    vertex -2.5 49.75 3.9999999999999996
    vertex -2.5 44.75 3.9999999999999996
  endloop
endfacet
facet normal 0.0 0.0 1.0
  outer loop
    vertex -2.5 49.75 3.9999999999999996
    vertex 0.0 44.75 3.9999999999999996
    vertex 0.0 49.75 3.9999999999999996
  endloop
endfacet
facet normal -1.0 -0.0 -0.0
  outer loop
    vertex -2.5 49.75 3.9999999999999996
    vertex -2.5 44.75 0.0
    vertex -2.5 44.75 3.9999999999999996
  endloop
endfacet
facet normal -1.0 -0.0 -0.0
  outer loop
    vertex -2.5 44.75 0.0
    vertex -2.5 49.75 3.9999999999999996
    vertex -2.5 49.75 0.0
  endloop
endfacet
facet normal 0.0 -1.0 0.0
  outer loop
    vertex 0.0 44.75 1.9999999999999998
    vertex -2.5 44.75 0.0
    vertex 0.0 44.75 0.0
  endloop
endfacet
facet normal 0.0 -1.0 0.0
  outer loop
    vertex -2.5 44.75 0.0
    vertex 0.0 44.75 1.9999999999999998
    vertex -2.5 44.75 3.9999999999999996
  endloop
endfacet
facet normal 0.0 -1.0 0.0
  outer loop
    vertex -2.5 44.75 3.9999999999999996
    vertex 0.0 44.75 1.9999999999999998
    vertex 0.0 44.75 3.9999999999999996
  endloop
endfacet
facet normal 1.0 -0.0 -0.0
  outer loop
    vertex 0.0 49.75 1.9999999999999998
    vertex 0.0 44.75 3.9999999999999996
    vertex 0.0 44.75 1.9999999999999998
  endloop
endfacet
facet normal 1.0 -0.0 -0.0
  outer loop
    vertex 0.0 44.75 3.9999999999999996
    vertex 0.0 49.75 1.9999999999999998
    vertex 0.0 49.75 3.9999999999999996
  endloop
endfacet
facet normal -0.0 1.0 -0.0
  outer loop
    vertex -2.5 49.75 0.0
    vertex 0.0 49.75 1.9999999999999998
    vertex 25.999999999999996 49.75 0.0
  endloop
endfacet
facet normal -0.0 1.0 -0.0
  outer loop
    vertex 0.0 49.75 1.9999999999999998
    vertex -2.5 49.75 0.0
    vertex -2.5 49.75 3.9999999999999996
  endloop
endfacet
facet normal -0.0 1.0 -0.0
  outer loop
    vertex 0.0 49.75 1.9999999999999998
    vertex -2.5 49.75 3.9999999999999996
    vertex 0.0 49.75 3.9999999999999996
  endloop
endfacet
facet normal -0.0 1.0 -0.0
  outer loop
    vertex 25.999999999999996 49.75 1.9999999999999998
    vertex 25.999999999999996 49.75 0.0
    vertex 0.0 49.75 1.9999999999999998
  endloop
endfacet
facet normal 0.0 0.0 1.0
  outer loop
    vertex 0.0 13.249999999999998 3.9999999999999996
    vertex -2.5 18.25 3.9999999999999996
    vertex -2.5 13.249999999999998 3.9999999999999996
  endloop
endfacet
facet normal 0.0 0.0 1.0
  outer loop
    vertex -2.5 18.25 3.9999999999999996
    vertex 0.0 13.249999999999998 3.9999999999999996
    vertex 0.0 18.25 3.9999999999999996
  endloop
endfacet
facet normal -1.0 -0.0 -0.0
  outer loop
    vertex -2.5 18.25 3.9999999999999996
    vertex -2.5 13.249999999999998 0.0
    vertex -2.5 13.249999999999998 3.9999999999999996
  endloop
endfacet
facet normal -1.0 -0.0 -0.0
  outer loop
    vertex -2.5 13.249999999999998 0.0
    vertex -2.5 18.25 3.9999999999999996
    vertex -2.5 18.25 0.0
  endloop
endfacet
facet normal 0.0 -1.0 0.0
  outer loop
    vertex 25.999999999999996 13.249999999999998 1.9999999999999998
    vertex -2.5 13.249999999999998 0.0
    vertex 25.999999999999996 13.249999999999998 0.0
  endloop
endfacet
facet normal 0.0 -1.0 0.0
  outer loop
    vertex -2.5 13.249999999999998 0.0
    vertex 25.999999999999996 13.249999999999998 1.9999999999999998
    vertex 0.0 13.249999999999998 1.9999999999999998
  endloop
endfacet
facet normal 0.0 -1.0 0.0
  outer loop
    vertex -2.5 13.249999999999998 0.0
    vertex 0.0 13.249999999999998 1.9999999999999998
    vertex -2.5 13.249999999999998 3.9999999999999996
  endloop
endfacet
facet normal 0.0 -1.0 0.0
  outer loop
    vertex -2.5 13.249999999999998 3.9999999999999996
    vertex 0.0 13.249999999999998 1.9999999999999998
    vertex 0.0 13.249999999999998 3.9999999999999996
  endloop
endfacet
facet normal 1.0 -0.0 -0.0
  outer loop
    vertex 0.0 18.25 1.9999999999999998
    vertex 0.0 13.249999999999998 3.9999999999999996
    vertex 0.0 13.249999999999998 1.9999999999999998
  endloop
endfacet
facet normal 1.0 -0.0 -0.0
  outer loop
    vertex 0.0 13.249999999999998 3.9999999999999996
    vertex 0.0 18.25 1.9999999999999998
    vertex 0.0 18.25 3.9999999999999996
  endloop
endfacet
facet normal -0.0 1.0 -0.0
  outer loop
    vertex -2.5 18.25 3.9999999999999996
    vertex 0.0 18.25 0.0
    vertex -2.5 18.25 0.0
  endloop
endfacet
facet normal -0.0 1.0 -0.0
  outer loop
    vertex 0.0 18.25 0.0
    vertex -2.5 18.25 3.9999999999999996
    vertex 0.0 18.25 1.9999999999999998
  endloop
endfacet
facet normal -0.0 1.0 -0.0
  outer loop
    vertex 0.0 18.25 1.9999999999999998
    vertex -2.5 18.25 3.9999999999999996
    vertex 0.0 18.25 3.9999999999999996
  endloop
endfacet
facet normal -0.0 -0.0 1.0
  outer loop
    vertex 25.999999999999996 13.249999999999998 1.9999999999999998
    vertex 0.0 18.25 1.9999999999999998
    vertex 0.0 13.249999999999998 1.9999999999999998
  endloop
endfacet
facet normal -0.0 -0.0 1.0
  outer loop
    vertex 0.0 18.25 1.9999999999999998
    vertex 25.999999999999996 13.249999999999998 1.9999999999999998
    vertex 3.9999999999999996 18.249999999999996 1.9999999999999998
  endloop
endfacet
facet normal -0.0 -0.0 1.0
  outer loop
    vertex 0.0 18.25 1.9999999999999998
    vertex 3.9999999999999996 18.249999999999996 1.9999999999999998
    vertex 0.0 44.75 1.9999999999999998
  endloop
endfacet
facet normal -0.0 -0.0 1.0
  outer loop
    vertex 0.0 44.75 1.9999999999999998
    vertex 3.9999999999999996 18.249999999999996 1.9999999999999998
    vertex 0.0 49.75 1.9999999999999998
  endloop
endfacet
facet normal -0.0 -0.0 1.0
  outer loop
    vertex 3.9999999999999996 18.249999999999996 1.9999999999999998
    vertex 25.999999999999996 13.249999999999998 1.9999999999999998
    vertex 25.999999999999996 18.25 1.9999999999999998
  endloop
endfacet
facet normal -0.0 -0.0 1.0
  outer loop
    vertex 0.0 49.75 1.9999999999999998
    vertex 3.9999999999999996 44.75 1.9999999999999998
    vertex 25.999999999999996 49.75 1.9999999999999998
  endloop
endfacet
facet normal -0.0 -0.0 1.0
  outer loop
    vertex 3.9999999999999996 44.75 1.9999999999999998
    vertex 0.0 49.75 1.9999999999999998
    vertex 3.9999999999999996 18.249999999999996 1.9999999999999998
  endloop
endfacet
facet normal -0.0 -0.0 1.0
  outer loop
    vertex 25.999999999999996 49.75 1.9999999999999998
    vertex 3.9999999999999996 44.75 1.9999999999999998
    vertex 25.999999999999996 44.75 1.9999999999999998
  endloop
endfacet
facet normal -2.563605893225362e-16 1.0 -0.0
  outer loop
    vertex 3.9999999999999996 18.249999999999996 1.9999999999999998
    vertex 25.999999999999996 18.25 0.0
    vertex 3.9999999999999996 18.249999999999996 0.0
  endloop
endfacet
facet normal -2.563605893225362e-16 1.0 -0.0
  outer loop
    vertex 25.999999999999996 18.25 0.0
    vertex 3.9999999999999996 18.249999999999996 1.9999999999999998
    vertex 25.999999999999996 18.25 1.9999999999999998
  endloop
endfacet
facet normal 1.0 -0.0 0.0
  outer loop
    vertex 3.9999999999999996 44.75 0.0
    vertex 3.9999999999999996 18.249999999999996 1.9999999999999998
    vertex 3.9999999999999996 18.249999999999996 0.0
  endloop
endfacet
facet normal 1.0 -0.0 0.0
  outer loop
    vertex 3.9999999999999996 18.249999999999996 1.9999999999999998
    vertex 3.9999999999999996 44.75 0.0
    vertex 3.9999999999999996 44.75 1.9999999999999998
  endloop
endfacet
facet normal 0.0 -1.0 0.0
  outer loop
    vertex 25.999999999999996 44.75 1.9999999999999998
    vertex 3.9999999999999996 44.75 0.0
    vertex 25.999999999999996 44.75 0.0
  endloop
endfacet
facet normal 0.0 -1.0 0.0
  outer loop
    vertex 3.9999999999999996 44.75 0.0
    vertex 25.999999999999996 44.75 1.9999999999999998
    vertex 3.9999999999999996 44.75 1.9999999999999998
  endloop
endfacet
facet normal -1.0 0.0 0.0
  outer loop
    vertex 0.0 44.75 1.9999999999999998
    vertex 0.0 18.25 0.0
    vertex 0.0 18.25 1.9999999999999998
  endloop
endfacet
facet normal -1.0 0.0 0.0
  outer loop
    vertex 0.0 18.25 0.0
    vertex 0.0 44.75 1.9999999999999998
    vertex 0.0 44.75 0.0
  endloop
endfacet
facet normal 1.0 -0.0 -0.0
  outer loop
    vertex 44.0 46.5 0.0
    vertex 44.0 16.499999999999996 13.428571428571429
    vertex 44.0 16.499999999999996 0.0
  endloop
endfacet
facet normal 1.0 -0.0 -0.0
  outer loop
    vertex 44.0 16.499999999999996 13.428571428571429
    vertex 44.0 46.5 0.0
    vertex 44.0 46.5 13.428571428571429
  endloop
endfacet
facet normal 0.1776825304763119 0.984087861099574 -0.0
  outer loop
    vertex 25.999999999999996 49.75 1.9999999999999998
    vertex 44.0 46.5 0.0
    vertex 25.999999999999996 49.75 0.0
  endloop
endfacet
facet normal 0.1776825304763119 0.984087861099574 -0.0
  outer loop
    vertex 44.0 46.5 0.0
    vertex 25.999999999999996 49.75 1.9999999999999998
    vertex 44.0 46.5 13.428571428571429
  endloop
endfacet
facet normal 0.1776825304763119 0.984087861099574 -0.0
  outer loop
    vertex 44.0 46.5 13.428571428571429
    vertex 25.999999999999996 49.75 1.9999999999999998
    vertex 25.999999999999996 49.75 7.0
  endloop
endfacet
facet normal -0.17768253047631194 -0.984087861099574 -5.223430598636125e-18
  outer loop
    vertex 40.0 42.22222222222222 12.0
    vertex 29.99999999999999 44.02777777777778 0.0
    vertex 40.0 42.22222222222222 0.0
  endloop
endfacet
facet normal -0.17768253047631194 -0.984087861099574 -5.223430598636125e-18
  outer loop
    vertex 29.99999999999999 44.02777777777778 0.0
    vertex 40.0 42.22222222222222 12.0
    vertex 29.99999999999999 44.02777777777778 8.428571428571427
  endloop
endfacet
facet normal -0.17768253047631188 0.984087861099574 1.567029179590841e-17
  outer loop
    vertex 30.0 18.972222222222225 8.428571428571429
    vertex 40.0 20.77777777777778 0.0
    vertex 30.0 18.972222222222225 0.0
  endloop
endfacet
facet normal -0.17768253047631188 0.984087861099574 1.567029179590841e-17
  outer loop
    vertex 40.0 20.77777777777778 0.0
    vertex 30.0 18.972222222222225 8.428571428571429
    vertex 40.0 20.77777777777778 12.0
  endloop
endfacet
facet normal 1.0 4.501942056395757e-16 2.6864203369158383e-33
  outer loop
    vertex 29.99999999999999 44.02777777777778 0.0
    vertex 30.0 18.972222222222225 8.428571428571429
    vertex 30.0 18.972222222222225 0.0
  endloop
endfacet
facet normal 1.0 4.501942056395757e-16 2.6864203369158383e-33
  outer loop
    vertex 30.0 18.972222222222225 8.428571428571429
    vertex 29.99999999999999 44.02777777777778 0.0
    vertex 29.99999999999999 44.02777777777778 8.428571428571427
  endloop
endfacet
facet normal -1.0 0.0 0.0
  outer loop
    vertex 40.0 42.22222222222222 12.0
    vertex 40.0 20.77777777777778 0.0
    vertex 40.0 20.77777777777778 12.0
  endloop
endfacet
facet normal -1.0 0.0 0.0
  outer loop
    vertex 40.0 20.77777777777778 0.0
    vertex 40.0 42.22222222222222 12.0
    vertex 40.0 42.22222222222222 0.0
  endloop
endfacet
facet normal 0.17768253047631194 -0.984087861099574 3.7509535167937685e-17
  outer loop
    vertex 44.0 16.499999999999996 13.428571428571429
    vertex 25.999999999999996 13.249999999999998 0.0
    vertex 44.0 16.499999999999996 0.0
  endloop
endfacet
facet normal 0.17768253047631194 -0.984087861099574 3.7509535167937685e-17
  outer loop
    vertex 25.999999999999996 13.249999999999998 0.0
    vertex 44.0 16.499999999999996 13.428571428571429
    vertex 25.999999999999996 13.249999999999998 1.9999999999999998
  endloop
endfacet
facet normal 0.17768253047631194 -0.984087861099574 3.7509535167937685e-17
  outer loop
    vertex 25.999999999999996 13.249999999999998 1.9999999999999998
    vertex 44.0 16.499999999999996 13.428571428571429
    vertex 25.999999999999996 13.249999999999998 7.0
  endloop
endfacet
facet normal -1.0 0.0 0.0
  outer loop
    vertex 25.999999999999996 49.75 7.0
    vertex 25.999999999999996 13.249999999999998 1.9999999999999998
    vertex 25.999999999999996 13.249999999999998 7.0
  endloop
endfacet
facet normal -1.0 0.0 0.0
  outer loop
    vertex 25.999999999999996 13.249999999999998 1.9999999999999998
    vertex 25.999999999999996 49.75 7.0
    vertex 25.999999999999996 18.25 1.9999999999999998
  endloop
endfacet
facet normal -1.0 0.0 0.0
  outer loop
    vertex 25.999999999999996 18.25 1.9999999999999998
    vertex 25.999999999999996 49.75 7.0
    vertex 25.999999999999996 18.25 0.0
  endloop
endfacet
facet normal -1.0 0.0 0.0
  outer loop
    vertex 25.999999999999996 18.25 0.0
    vertex 25.999999999999996 49.75 7.0
    vertex 25.999999999999996 44.75 1.9999999999999998
  endloop
endfacet
facet normal -1.0 0.0 0.0
  outer loop
    vertex 25.999999999999996 44.75 1.9999999999999998
    vertex 25.999999999999996 49.75 7.0
    vertex 25.999999999999996 49.75 1.9999999999999998
  endloop
endfacet
facet normal -1.0 0.0 0.0
  outer loop
    vertex 25.999999999999996 44.75 0.0
    vertex 25.999999999999996 18.25 0.0
    vertex 25.999999999999996 44.75 1.9999999999999998
  endloop
endfacet
facet normal -0.3363363969981563 -0.0 0.9417419115948374
  outer loop
    vertex 25.999999999999996 13.249999999999998 7.0
    vertex 30.0 18.972222222222225 8.428571428571429
    vertex 25.999999999999996 49.75 7.0
  endloop
endfacet
facet normal -0.3363363969981563 -0.0 0.9417419115948374
  outer loop
    vertex 30.0 18.972222222222225 8.428571428571429
    vertex 25.999999999999996 13.249999999999998 7.0
    vertex 44.0 16.499999999999996 13.428571428571429
  endloop
endfacet
facet normal -0.3363363969981563 -0.0 0.9417419115948374
  outer loop
    vertex 25.999999999999996 49.75 7.0
    vertex 30.0 18.972222222222225 8.428571428571429
    vertex 29.99999999999999 44.02777777777778 8.428571428571427
  endloop
endfacet
facet normal -0.3363363969981563 -0.0 0.9417419115948374
  outer loop
    vertex 30.0 18.972222222222225 8.428571428571429
    vertex 44.0 16.499999999999996 13.428571428571429
    vertex 40.0 20.77777777777778 12.0
  endloop
endfacet
facet normal -0.3363363969981563 -0.0 0.9417419115948374
  outer loop
    vertex 40.0 20.77777777777778 12.0
    vertex 44.0 16.499999999999996 13.428571428571429
    vertex 40.0 42.22222222222222 12.0
  endloop
endfacet
facet normal -0.3363363969981563 -0.0 0.9417419115948374
  outer loop
    vertex 29.99999999999999 44.02777777777778 8.428571428571427
    vertex 44.0 46.5 13.428571428571429
    vertex 25.999999999999996 49.75 7.0
  endloop
endfacet
facet normal -0.3363363969981563 -0.0 0.9417419115948374
  outer loop
    vertex 44.0 46.5 13.428571428571429
    vertex 29.99999999999999 44.02777777777778 8.428571428571427
    vertex 40.0 42.22222222222222 12.0
  endloop
endfacet
facet normal -0.3363363969981563 -0.0 0.9417419115948374
  outer loop
    vertex 44.0 46.5 13.428571428571429
    vertex 40.0 42.22222222222222 12.0
    vertex 44.0 16.499999999999996 13.428571428571429
  endloop
endfacet
endsolid 3d_7688_mount
