solid 3d_leg_crew_c
facet normal 0.0 0.0 -1.0
  outer loop
    vertex 20.000000000000004 31.0 0.0
    vertex 16.0 27.0 0.0
    vertex 16.0 31.0 0.0
  endloop
endfacet
facet normal 0.0 0.0 -1.0
  outer loop
    vertex 16.0 27.0 0.0
    vertex 20.000000000000004 31.0 0.0
    vertex 19.619047619047617 25.000000000000004 0.0
  endloop
endfacet
facet normal 0.0 0.0 -1.0
  outer loop
    vertex 19.619047619047617 25.000000000000004 0.0
    vertex 20.000000000000004 31.0 0.0
    vertex 19.619047619047617 6.0 0.0
  endloop
endfacet
facet normal 0.0 0.0 -1.0
  outer loop
    vertex 19.619047619047617 6.0 0.0
    vertex 20.000000000000004 31.0 0.0
    vertex 19.875 14.499999999999996 0.0
  endloop
endfacet
facet normal 0.0 0.0 -1.0
  outer loop
    vertex 19.875 14.499999999999996 0.0
    vertex 20.000000000000004 31.0 0.0
    vertex 20.0 16.499999999999996 0.0
  endloop
endfacet
facet normal 0.0 0.0 -1.0
  outer loop
    vertex 20.0 16.499999999999996 0.0
    vertex 20.000000000000004 31.0 0.0
    vertex 21.9156525704423 26.425304228867315 0.0
  endloop
endfacet
facet normal 0.0 0.0 -1.0
  outer loop
    vertex 21.9156525704423 26.425304228867315 0.0
    vertex 20.000000000000004 31.0 0.0
    vertex 30.0 28.0 0.0
  endloop
endfacet
facet normal 0.0 0.0 -1.0
  outer loop
    vertex 21.9156525704423 26.425304228867315 0.0
    vertex 30.0 28.0 0.0
    vertex 30.0 24.0 0.0
  endloop
endfacet
facet normal 0.0 0.0 -1.0
  outer loop
    vertex 30.0 24.0 0.0
    vertex 30.0 28.0 0.0
    vertex 37.95980594182684 22.007764069144795 0.0
  endloop
endfacet
facet normal 0.0 0.0 -1.0
  outer loop
    vertex 30.0 24.0 0.0
    vertex 37.95980594182684 22.007764069144795 0.0
    vertex 31.58536585365854 22.8109756097561 0.0
  endloop
endfacet
facet normal 0.0 0.0 -1.0
  outer loop
    vertex 31.58536585365854 22.8109756097561 0.0
    vertex 37.95980594182684 22.007764069144795 0.0
    vertex 36.0 19.499999999999996 0.0
  endloop
endfacet
facet normal 0.0 0.0 -1.0
  outer loop
    vertex 36.0 19.499999999999996 0.0
    vertex 37.95980594182684 22.007764069144795 0.0
    vertex 36.0 12.100000000000003 0.0
  endloop
endfacet
facet normal 0.0 0.0 -1.0
  outer loop
    vertex 25.938228438228442 15.469696969696965 0.0
    vertex 30.0 7.000000000000001 0.0
    vertex 24.230769230769234 14.499999999999996 0.0
  endloop
endfacet
facet normal 0.0 0.0 -1.0
  outer loop
    vertex 30.0 7.000000000000001 0.0
    vertex 25.938228438228442 15.469696969696965 0.0
    vertex 31.58536585365854 8.34756097560976 0.0
  endloop
endfacet
facet normal 0.0 0.0 -1.0
  outer loop
    vertex 30.0 7.000000000000001 0.0
    vertex 31.58536585365854 8.34756097560976 0.0
    vertex 30.0 3.0 0.0
  endloop
endfacet
facet normal 0.0 0.0 -1.0
  outer loop
    vertex 30.0 3.0 0.0
    vertex 31.58536585365854 8.34756097560976 0.0
    vertex 37.95980594182684 8.992235930855205 0.0
  endloop
endfacet
facet normal 0.0 0.0 -1.0
  outer loop
    vertex 37.95980594182684 8.992235930855205 0.0
    vertex 31.58536585365854 8.34756097560976 0.0
    vertex 36.0 12.100000000000003 0.0
  endloop
endfacet
facet normal 0.0 0.0 -1.0
  outer loop
    vertex 37.95980594182684 8.992235930855205 0.0
    vertex 36.0 12.100000000000003 0.0
    vertex 37.95980594182684 22.007764069144795 0.0
  endloop
endfacet
facet normal 0.0 0.0 -1.0
  outer loop
    vertex 37.95980594182684 8.992235930855205 0.0
    vertex 37.95980594182684 22.007764069144795 0.0
    vertex 38.29597820481293 21.68862402989004 0.0
  endloop
endfacet
facet normal 0.0 0.0 -1.0
  outer loop
    vertex 37.95980594182684 8.992235930855205 0.0
    vertex 38.29597820481293 21.68862402989004 0.0
    vertex 38.29597820481293 9.311375970109959 0.0
  endloop
endfacet
facet normal 0.0 0.0 -1.0
  outer loop
    vertex 38.29597820481293 9.311375970109959 0.0
    vertex 38.29597820481293 21.68862402989004 0.0
    vertex 38.60651038071116 21.344484635474604 0.0
  endloop
endfacet
facet normal 0.0 0.0 -1.0
  outer loop
    vertex 38.29597820481293 9.311375970109959 0.0
    vertex 38.60651038071116 21.344484635474604 0.0
    vertex 38.606510380711164 9.655515364525394 0.0
  endloop
endfacet
facet normal 0.0 0.0 -1.0
  outer loop
    vertex 38.606510380711164 9.655515364525394 0.0
    vertex 38.60651038071116 21.344484635474604 0.0
    vertex 38.889549091395764 20.977399845118597 0.0
  endloop
endfacet
facet normal 0.0 0.0 -1.0
  outer loop
    vertex 38.606510380711164 9.655515364525394 0.0
    vertex 38.889549091395764 20.977399845118597 0.0
    vertex 38.889549091395764 10.022600154881397 0.0
  endloop
endfacet
facet normal 0.0 0.0 -1.0
  outer loop
    vertex 38.889549091395764 10.022600154881397 0.0
    vertex 38.889549091395764 20.977399845118597 0.0
    vertex 39.14340505055167 20.58956056518715 0.0
  endloop
endfacet
facet normal 0.0 0.0 -1.0
  outer loop
    vertex 38.889549091395764 10.022600154881397 0.0
    vertex 39.14340505055167 20.58956056518715 0.0
    vertex 39.14340505055167 10.410439434812847 0.0
  endloop
endfacet
facet normal 0.0 0.0 -1.0
  outer loop
    vertex 39.14340505055167 10.410439434812847 0.0
    vertex 39.14340505055167 20.58956056518715 0.0
    vertex 39.3665631459995 20.183281572999746 0.0
  endloop
endfacet
facet normal 0.0 0.0 -1.0
  outer loop
    vertex 39.14340505055167 10.410439434812847 0.0
    vertex 39.3665631459995 20.183281572999746 0.0
    vertex 39.3665631459995 10.816718427000252 0.0
  endloop
endfacet
facet normal 0.0 0.0 -1.0
  outer loop
    vertex 39.3665631459995 10.816718427000252 0.0
    vertex 39.3665631459995 20.183281572999746 0.0
    vertex 39.55769148248072 19.760987701329046 0.0
  endloop
endfacet
facet normal 0.0 0.0 -1.0
  outer loop
    vertex 39.3665631459995 10.816718427000252 0.0
    vertex 39.55769148248072 19.760987701329046 0.0
    vertex 39.55769148248072 11.239012298670952 0.0
  endloop
endfacet
facet normal 0.0 0.0 -1.0
  outer loop
    vertex 39.55769148248072 11.239012298670952 0.0
    vertex 39.55769148248072 19.760987701329046 0.0
    vertex 39.71564933093234 19.32519936604545 0.0
  endloop
endfacet
facet normal 0.0 0.0 -1.0
  outer loop
    vertex 39.55769148248072 11.239012298670952 0.0
    vertex 39.71564933093234 19.32519936604545 0.0
    vertex 39.71564933093234 11.67480063395455 0.0
  endloop
endfacet
facet normal 0.0 0.0 -1.0
  outer loop
    vertex 39.71564933093234 11.67480063395455 0.0
    vertex 39.71564933093234 19.32519936604545 0.0
    vertex 39.83949393680638 18.878517523284167 0.0
  endloop
endfacet
facet normal 0.0 0.0 -1.0
  outer loop
    vertex 39.71564933093234 11.67480063395455 0.0
    vertex 39.83949393680638 18.878517523284167 0.0
    vertex 39.839493936806385 12.121482476715833 0.0
  endloop
endfacet
facet normal 0.0 0.0 -1.0
  outer loop
    vertex 39.839493936806385 12.121482476715833 0.0
    vertex 39.83949393680638 18.878517523284167 0.0
    vertex 39.928486146799784 18.423608145916322 0.0
  endloop
endfacet
facet normal 0.0 0.0 -1.0
  outer loop
    vertex 39.839493936806385 12.121482476715833 0.0
    vertex 39.928486146799784 18.423608145916322 0.0
    vertex 39.92848614679979 12.576391854083678 0.0
  endloop
endfacet
facet normal 0.0 0.0 -1.0
  outer loop
    vertex 39.92848614679979 12.576391854083678 0.0
    vertex 39.928486146799784 18.423608145916322 0.0
    vertex 39.982094820411945 17.963186311974596 0.0
  endloop
endfacet
facet normal 0.0 0.0 -1.0
  outer loop
    vertex 39.92848614679979 12.576391854083678 0.0
    vertex 39.982094820411945 17.963186311974596 0.0
    vertex 39.982094820411945 13.0368136880254 0.0
  endloop
endfacet
facet normal 0.0 0.0 -1.0
  outer loop
    vertex 39.982094820411945 13.0368136880254 0.0
    vertex 39.982094820411945 17.963186311974596 0.0
    vertex 40.0 14.499999999999998 0.0
  endloop
endfacet
facet normal 0.0 0.0 -1.0
  outer loop
    vertex 19.619047619047617 6.0 0.0
    vertex 13.5 3.9999999999999996 0.0
    vertex 13.5 6.0 0.0
  endloop
endfacet
facet normal 0.0 0.0 -1.0
  outer loop
    vertex 13.5 3.9999999999999996 0.0
    vertex 19.619047619047617 6.0 0.0
    vertex 16.0 4.0 0.0
  endloop
endfacet
facet normal 0.0 0.0 -1.0
  outer loop
    vertex 16.0 4.0 0.0
    vertex 19.619047619047617 6.0 0.0
    vertex 16.0 0.0 0.0
  endloop
endfacet
facet normal 0.0 0.0 -1.0
  outer loop
    vertex 16.0 0.0 0.0
    vertex 19.619047619047617 6.0 0.0
    vertex 20.000000000000004 0.0 0.0
  endloop
endfacet
facet normal 0.0 0.0 -1.0
  outer loop
    vertex 20.000000000000004 0.0 0.0
    vertex 19.619047619047617 6.0 0.0
    vertex 19.875 14.499999999999996 0.0
  endloop
endfacet
facet normal 0.0 0.0 -1.0
  outer loop
    vertex 20.000000000000004 0.0 0.0
    vertex 19.875 14.499999999999996 0.0
    vertex 21.9156525704423 4.57469577113269 0.0
  endloop
endfacet
facet normal 0.0 0.0 -1.0
  outer loop
    vertex 20.000000000000004 0.0 0.0
    vertex 21.9156525704423 4.57469577113269 0.0
    vertex 30.0 3.0 0.0
  endloop
endfacet
facet normal 0.0 0.0 -1.0
  outer loop
    vertex 30.0 3.0 0.0
    vertex 21.9156525704423 4.57469577113269 0.0
    vertex 30.0 7.000000000000001 0.0
  endloop
endfacet
facet normal 0.0 0.0 -1.0
  outer loop
    vertex 20.0 16.499999999999996 0.0
    vertex 24.230769230769234 14.499999999999996 0.0
    vertex 19.875 14.499999999999996 0.0
  endloop
endfacet
facet normal 0.0 0.0 -1.0
  outer loop
    vertex 24.230769230769234 14.499999999999996 0.0
    vertex 20.0 16.499999999999996 0.0
    vertex 24.230769230769234 16.499999999999996 0.0
  endloop
endfacet
facet normal 0.0 0.0 -1.0
  outer loop
    vertex 24.230769230769234 14.499999999999996 0.0
    vertex 24.230769230769234 16.499999999999996 0.0
    vertex 30.0 24.0 0.0
  endloop
endfacet
facet normal 0.0 0.0 -1.0
  outer loop
    vertex 24.230769230769234 14.499999999999996 0.0
    vertex 30.0 24.0 0.0
    vertex 25.938228438228442 15.469696969696965 0.0
  endloop
endfacet
facet normal 0.0 0.0 -1.0
  outer loop
    vertex 25.938228438228442 15.469696969696965 0.0
    vertex 30.0 24.0 0.0
    vertex 31.58536585365854 22.8109756097561 0.0
  endloop
endfacet
facet normal 0.0 0.0 -1.0
  outer loop
    vertex 11.499999999999998 18.499999999999993 0.0
    vertex 1.0000000000000004 27.0 0.0
    vertex 1.0000000000000004 29.000000000000004 0.0
  endloop
endfacet
facet normal 0.0 0.0 -1.0
  outer loop
    vertex 1.0000000000000004 27.0 0.0
    vertex 11.499999999999998 18.499999999999993 0.0
    vertex 10.530303030303033 15.469696969696965 0.0
  endloop
endfacet
facet normal 0.0 0.0 -1.0
  outer loop
    vertex 9.5 14.499999999999996 0.0
    vertex 1.0000000000000018 4.0 0.0
    vertex -1.0000000000000002 3.9999999999999996 0.0
  endloop
endfacet
facet normal 0.0 0.0 -1.0
  outer loop
    vertex 1.0000000000000018 4.0 0.0
    vertex 9.5 14.499999999999996 0.0
    vertex 1.0000000000000018 2.0000000000000004 0.0
  endloop
endfacet
facet normal 0.0 0.0 -1.0
  outer loop
    vertex 1.0000000000000018 2.0000000000000004 0.0
    vertex 9.5 14.499999999999996 0.0
    vertex 11.500000000000004 12.500000000000005 0.0
  endloop
endfacet
facet normal 0.0 0.0 -1.0
  outer loop
    vertex 11.500000000000004 12.500000000000005 0.0
    vertex 9.5 14.499999999999996 0.0
    vertex 10.530303030303033 15.469696969696965 0.0
  endloop
endfacet
facet normal 0.0 0.0 -1.0
  outer loop
    vertex 11.500000000000004 12.500000000000005 0.0
    vertex 10.530303030303033 15.469696969696965 0.0
    vertex 11.499999999999998 18.499999999999993 0.0
  endloop
endfacet
facet normal 0.0 0.0 -1.0
  outer loop
    vertex 11.500000000000004 12.500000000000005 0.0
    vertex 11.499999999999998 18.499999999999993 0.0
    vertex 11.500000000000002 31.0 0.0
  endloop
endfacet
facet normal 0.0 0.0 -1.0
  outer loop
    vertex 11.500000000000004 12.500000000000005 0.0
    vertex 11.500000000000002 31.0 0.0
    vertex 13.5 31.0 0.0
  endloop
endfacet
facet normal 0.0 0.0 -1.0
  outer loop
    vertex 18.0 16.499999999999996 0.0
    vertex 13.5 14.499999999999996 0.0
    vertex 13.5 16.499999999999996 0.0
  endloop
endfacet
facet normal 0.0 0.0 -1.0
  outer loop
    vertex 13.5 14.499999999999996 0.0
    vertex 18.0 16.499999999999996 0.0
    vertex 18.0 14.499999999999996 0.0
  endloop
endfacet
facet normal 0.0 0.0 -1.0
  outer loop
    vertex 18.0 14.499999999999996 0.0
    vertex 18.0 16.499999999999996 0.0
    vertex 19.619047619047617 25.000000000000004 0.0
  endloop
endfacet
facet normal 0.0 0.0 -1.0
  outer loop
    vertex 18.0 14.499999999999996 0.0
    vertex 19.619047619047617 25.000000000000004 0.0
    vertex 19.619047619047617 6.0 0.0
  endloop
endfacet
facet normal 0.0 0.0 -1.0
  outer loop
    vertex 16.0 27.0 0.0
    vertex 13.5 25.000000000000004 0.0
    vertex 13.5 27.0 0.0
  endloop
endfacet
facet normal 0.0 0.0 -1.0
  outer loop
    vertex 13.5 25.000000000000004 0.0
    vertex 16.0 27.0 0.0
    vertex 19.619047619047617 25.000000000000004 0.0
  endloop
endfacet
facet normal 0.0 0.0 -1.0
  outer loop
    vertex 11.500000000000004 12.500000000000005 0.0
    vertex 13.5 0.0 0.0
    vertex 11.500000000000002 0.0 0.0
  endloop
endfacet
facet normal 0.0 0.0 -1.0
  outer loop
    vertex 13.5 0.0 0.0
    vertex 11.500000000000004 12.500000000000005 0.0
    vertex 13.5 31.0 0.0
  endloop
endfacet
facet normal 0.0 0.0 -1.0
  outer loop
    vertex 13.5 0.0 0.0
    vertex 13.5 31.0 0.0
    vertex 13.5 27.0 0.0
  endloop
endfacet
facet normal 0.0 0.0 -1.0
  outer loop
    vertex 13.5 0.0 0.0
    vertex 13.5 27.0 0.0
    vertex 13.5 25.000000000000004 0.0
  endloop
endfacet
facet normal 0.0 0.0 -1.0
  outer loop
    vertex 13.5 0.0 0.0
    vertex 13.5 25.000000000000004 0.0
    vertex 13.5 16.499999999999996 0.0
  endloop
endfacet
facet normal 0.0 0.0 -1.0
  outer loop
    vertex 13.5 0.0 0.0
    vertex 13.5 16.499999999999996 0.0
    vertex 13.5 14.499999999999996 0.0
  endloop
endfacet
facet normal 0.0 0.0 -1.0
  outer loop
    vertex 13.5 0.0 0.0
    vertex 13.5 14.499999999999996 0.0
    vertex 13.5 6.0 0.0
  endloop
endfacet
facet normal 0.0 0.0 -1.0
  outer loop
    vertex 13.5 0.0 0.0
    vertex 13.5 6.0 0.0
    vertex 13.5 3.9999999999999996 0.0
  endloop
endfacet
facet normal 0.0 0.0 -1.0
  outer loop
    vertex 10.530303030303033 15.469696969696965 0.0
    vertex -1.0000000000000002 27.0 0.0
    vertex 1.0000000000000004 27.0 0.0
  endloop
endfacet
facet normal 3.5249581031848684e-16 -1.0 0.0
  outer loop
    vertex 1.0000000000000018 4.0 3.0
    vertex -1.0000000000000002 3.9999999999999996 0.0
    vertex 1.0000000000000018 4.0 0.0
  endloop
endfacet
facet normal 3.5249581031848684e-16 -1.0 0.0
  outer loop
    vertex -1.0000000000000002 3.9999999999999996 0.0
    vertex 1.0000000000000018 4.0 3.0
    vertex -1.0000000000000002 3.9999999999999996 3.0
  endloop
endfacet
facet normal -0.7071067811865474 0.7071067811865477 0.0
  outer loop
    vertex -1.0000000000000002 3.9999999999999996 3.0
    vertex 9.5 14.499999999999996 0.0
    vertex -1.0000000000000002 3.9999999999999996 0.0
  endloop
endfacet
facet normal -0.7071067811865474 0.7071067811865477 0.0
  outer loop
    vertex 9.5 14.499999999999996 0.0
    vertex -1.0000000000000002 3.9999999999999996 3.0
    vertex 9.5 14.499999999999996 3.0
  endloop
endfacet
facet normal -0.6853646990049895 0.7281999926928043 0.0
  outer loop
    vertex 9.5 14.499999999999996 3.0
    vertex 10.530303030303033 15.469696969696965 0.0
    vertex 9.5 14.499999999999996 0.0
  endloop
endfacet
facet normal -0.6853646990049895 0.7281999926928043 0.0
  outer loop
    vertex 10.530303030303033 15.469696969696965 0.0
    vertex 9.5 14.499999999999996 3.0
    vertex 10.530303030303033 15.469696969696965 3.0
  endloop
endfacet
facet normal -0.7071067811865477 -0.7071067811865475 -0.0
  outer loop
    vertex -1.0000000000000002 27.0 3.0
    vertex 10.530303030303033 15.469696969696965 0.0
    vertex 10.530303030303033 15.469696969696965 3.0
  endloop
endfacet
facet normal -0.7071067811865477 -0.7071067811865475 -0.0
  outer loop
    vertex 10.530303030303033 15.469696969696965 0.0
    vertex -1.0000000000000002 27.0 3.0
    vertex -1.0000000000000002 27.0 0.0
  endloop
endfacet
facet normal -0.0 1.0 0.0
  outer loop
    vertex -1.0000000000000002 27.0 3.0
    vertex 1.0000000000000004 27.0 0.0
    vertex -1.0000000000000002 27.0 0.0
  endloop
endfacet
facet normal -0.0 1.0 0.0
  outer loop
    vertex 1.0000000000000004 27.0 0.0
    vertex -1.0000000000000002 27.0 3.0
    vertex 1.0000000000000004 27.0 3.0
  endloop
endfacet
facet normal -1.0 0.0 0.0
  outer loop
    vertex 1.0000000000000004 29.000000000000004 3.0
    vertex 1.0000000000000004 27.0 0.0
    vertex 1.0000000000000004 27.0 3.0
  endloop
endfacet
facet normal -1.0 0.0 0.0
  outer loop
    vertex 1.0000000000000004 27.0 0.0
    vertex 1.0000000000000004 29.000000000000004 3.0
    vertex 1.0000000000000004 29.000000000000004 0.0
  endloop
endfacet
facet normal 0.707106781186548 0.7071067811865472 0.0
  outer loop
    vertex 1.0000000000000004 29.000000000000004 0.0
    vertex 11.499999999999998 18.499999999999993 3.0
    vertex 11.499999999999998 18.499999999999993 0.0
  endloop
endfacet
facet normal 0.707106781186548 0.7071067811865472 0.0
  outer loop
    vertex 11.499999999999998 18.499999999999993 3.0
    vertex 1.0000000000000004 29.000000000000004 0.0
    vertex 1.0000000000000004 29.000000000000004 3.0
  endloop
endfacet
facet normal -1.0 2.255973186038317e-16 0.0
  outer loop
    vertex 11.500000000000002 31.0 3.0
    vertex 11.499999999999998 18.499999999999993 0.0
    vertex 11.499999999999998 18.499999999999993 3.0
  endloop
endfacet
facet normal -1.0 2.255973186038317e-16 0.0
  outer loop
    vertex 11.499999999999998 18.499999999999993 0.0
    vertex 11.500000000000002 31.0 3.0
    vertex 11.500000000000002 31.0 0.0
  endloop
endfacet
facet normal -0.0 1.0 0.0
  outer loop
    vertex 11.500000000000002 31.0 3.0
    vertex 13.5 31.0 0.0
    vertex 11.500000000000002 31.0 0.0
  endloop
endfacet
facet normal -0.0 1.0 0.0
  outer loop
    vertex 13.5 31.0 0.0
    vertex 11.500000000000002 31.0 3.0
    vertex 13.5 31.0 3.0
  endloop
endfacet
facet normal 1.0 0.0 0.0
  outer loop
    vertex 13.5 31.0 0.0
    vertex 13.5 27.0 3.0
    vertex 13.5 27.0 0.0
  endloop
endfacet
facet normal 1.0 0.0 0.0
  outer loop
    vertex 13.5 27.0 3.0
    vertex 13.5 31.0 0.0
    vertex 13.5 31.0 3.0
  endloop
endfacet
facet normal -0.0 1.0 0.0
  outer loop
    vertex 13.5 27.0 3.0
    vertex 16.0 27.0 0.0
    vertex 13.5 27.0 0.0
  endloop
endfacet
facet normal -0.0 1.0 0.0
  outer loop
    vertex 16.0 27.0 0.0
    vertex 13.5 27.0 3.0
    vertex 16.0 27.0 3.0
  endloop
endfacet
facet normal -1.0 0.0 0.0
  outer loop
    vertex 16.0 31.0 3.0
    vertex 16.0 27.0 0.0
    vertex 16.0 27.0 3.0
  endloop
endfacet
facet normal -1.0 0.0 0.0
  outer loop
    vertex 16.0 27.0 0.0
    vertex 16.0 31.0 3.0
    vertex 16.0 31.0 0.0
  endloop
endfacet
facet normal -0.0 1.0 0.0
  outer loop
    vertex 16.0 31.0 3.0
    vertex 20.000000000000004 31.0 0.0
    vertex 16.0 31.0 0.0
  endloop
endfacet
facet normal -0.0 1.0 0.0
  outer loop
    vertex 20.000000000000004 31.0 0.0
    vertex 16.0 31.0 3.0
    vertex 20.000000000000004 31.0 3.0
  endloop
endfacet
facet normal 0.2873478855663455 0.9578262852211515 0.0
  outer loop
    vertex 20.000000000000004 31.0 3.0
    vertex 30.0 28.0 0.0
    vertex 20.000000000000004 31.0 0.0
  endloop
endfacet
facet normal 0.2873478855663455 0.9578262852211515 0.0
  outer loop
    vertex 30.0 28.0 0.0
    vertex 20.000000000000004 31.0 3.0
    vertex 30.0 28.0 3.0
  endloop
endfacet
facet normal 0.6010709305016446 0.7991939410506971 -0.0016676611592461353
  outer loop
    vertex 30.0 28.0 3.0
    vertex 37.95980594182684 22.007764069144795 0.0
    vertex 30.0 28.0 0.0
  endloop
endfacet
facet normal 0.6010709305016446 0.7991939410506971 -0.0016676611592461353
  outer loop
    vertex 37.95980594182684 22.007764069144795 0.0
    vertex 30.0 28.0 3.0
    vertex 37.95980594182684 22.007764069144795 3.0
  endloop
endfacet
facet normal 0.6010709305016446 0.7991939410506971 -0.0016676611592461353
  outer loop
    vertex 37.95980594182684 22.007764069144795 3.0
    vertex 30.0 28.0 3.0
    vertex 37.6 22.299999999999997 3.0
  endloop
endfacet
facet normal 0.9999359893264436 -0.011236057347362187 -0.0013297612693863663
  outer loop
    vertex 40.0 14.499999999999998 0.0
    vertex 39.982094820411945 13.0368136880254 3.0
    vertex 39.982094820411945 13.0368136880254 0.0
  endloop
endfacet
facet normal 0.9999359893264436 -0.011236057347362187 -0.0013297612693863663
  outer loop
    vertex 39.982094820411945 13.0368136880254 3.0
    vertex 40.0 14.499999999999998 0.0
    vertex 40.0 13.5 3.0
  endloop
endfacet
facet normal 0.9999359893264436 -0.011236057347362187 -0.0013297612693863663
  outer loop
    vertex 40.0 13.5 3.0
    vertex 40.0 14.499999999999998 0.0
    vertex 40.0 14.499999999999998 3.0
  endloop
endfacet
facet normal 0.2873478855663455 -0.9578262852211515 0.0
  outer loop
    vertex 30.0 3.0 3.0
    vertex 20.000000000000004 0.0 0.0
    vertex 30.0 3.0 0.0
  endloop
endfacet
facet normal 0.2873478855663455 -0.9578262852211515 0.0
  outer loop
    vertex 20.000000000000004 0.0 0.0
    vertex 30.0 3.0 3.0
    vertex 20.000000000000004 0.0 3.0
  endloop
endfacet
facet normal -0.0 -1.0 -0.0
  outer loop
    vertex 20.000000000000004 0.0 3.0
    vertex 16.0 0.0 0.0
    vertex 20.000000000000004 0.0 0.0
  endloop
endfacet
facet normal -0.0 -1.0 -0.0
  outer loop
    vertex 16.0 0.0 0.0
    vertex 20.000000000000004 0.0 3.0
    vertex 16.0 0.0 3.0
  endloop
endfacet
facet normal -1.0 0.0 0.0
  outer loop
    vertex 16.0 4.0 3.0
    vertex 16.0 0.0 0.0
    vertex 16.0 0.0 3.0
  endloop
endfacet
facet normal -1.0 0.0 0.0
  outer loop
    vertex 16.0 0.0 0.0
    vertex 16.0 4.0 3.0
    vertex 16.0 4.0 0.0
  endloop
endfacet
facet normal 2.819966482547896e-16 -1.0 0.0
  outer loop
    vertex 16.0 4.0 3.0
    vertex 13.5 3.9999999999999996 0.0
    vertex 16.0 4.0 0.0
  endloop
endfacet
facet normal 2.819966482547896e-16 -1.0 0.0
  outer loop
    vertex 13.5 3.9999999999999996 0.0
    vertex 16.0 4.0 3.0
    vertex 13.5 3.9999999999999996 3.0
  endloop
endfacet
facet normal 1.0 0.0 0.0
  outer loop
    vertex 13.5 3.9999999999999996 0.0
    vertex 13.5 0.0 3.0
    vertex 13.5 0.0 0.0
  endloop
endfacet
facet normal 1.0 0.0 0.0
  outer loop
    vertex 13.5 0.0 3.0
    vertex 13.5 3.9999999999999996 0.0
    vertex 13.5 3.9999999999999996 3.0
  endloop
endfacet
facet normal -0.0 -1.0 -0.0
  outer loop
    vertex 13.5 0.0 3.0
    vertex 11.500000000000002 0.0 0.0
    vertex 13.5 0.0 0.0
  endloop
endfacet
facet normal -0.0 -1.0 -0.0
  outer loop
    vertex 11.500000000000002 0.0 0.0
    vertex 13.5 0.0 3.0
    vertex 11.500000000000002 0.0 3.0
  endloop
endfacet
facet normal -1.0 1.1279865930191586e-16 0.0
  outer loop
    vertex 11.500000000000004 12.500000000000005 3.0
    vertex 11.500000000000002 0.0 0.0
    vertex 11.500000000000002 0.0 3.0
  endloop
endfacet
facet normal -1.0 1.1279865930191586e-16 0.0
  outer loop
    vertex 11.500000000000002 0.0 0.0
    vertex 11.500000000000004 12.500000000000005 3.0
    vertex 11.500000000000004 12.500000000000005 0.0
  endloop
endfacet
facet normal 0.7071067811865477 -0.7071067811865475 0.0
  outer loop
    vertex 11.500000000000004 12.500000000000005 0.0
    vertex 1.0000000000000018 2.0000000000000004 3.0
    vertex 1.0000000000000018 2.0000000000000004 0.0
  endloop
endfacet
facet normal 0.7071067811865477 -0.7071067811865475 0.0
  outer loop
    vertex 1.0000000000000018 2.0000000000000004 3.0
    vertex 11.500000000000004 12.500000000000005 0.0
    vertex 11.500000000000004 12.500000000000005 3.0
  endloop
endfacet
facet normal -1.0 0.0 0.0
  outer loop
    vertex 1.0000000000000018 4.0 3.0
    vertex 1.0000000000000018 2.0000000000000004 0.0
    vertex 1.0000000000000018 2.0000000000000004 3.0
  endloop
endfacet
facet normal -1.0 0.0 0.0
  outer loop
    vertex 1.0000000000000018 2.0000000000000004 0.0
    vertex 1.0000000000000018 4.0 3.0
    vertex 1.0000000000000018 4.0 0.0
  endloop
endfacet
facet normal 0.7926239891046004 -0.609710760849692 0.0
  outer loop
    vertex 31.58536585365854 22.8109756097561 0.0
    vertex 25.938228438228442 15.469696969696965 3.0
    vertex 25.938228438228442 15.469696969696965 0.0
  endloop
endfacet
facet normal 0.7926239891046004 -0.609710760849692 0.0
  outer loop
    vertex 25.938228438228442 15.469696969696965 3.0
    vertex 31.58536585365854 22.8109756097561 0.0
    vertex 31.58536585365854 22.8109756097561 3.0
  endloop
endfacet
facet normal 0.78357551269009 0.6212965603578234 0.0
  outer loop
    vertex 25.938228438228442 15.469696969696965 0.0
    vertex 31.58536585365854 8.34756097560976 3.0
    vertex 31.58536585365854 8.34756097560976 0.0
  endloop
endfacet
facet normal 0.78357551269009 0.6212965603578234 0.0
  outer loop
    vertex 31.58536585365854 8.34756097560976 3.0
    vertex 25.938228438228442 15.469696969696965 0.0
    vertex 25.938228438228442 15.469696969696965 3.0
  endloop
endfacet
facet normal -0.6476484200955405 0.7619393177594593 0.0
  outer loop
    vertex 31.58536585365854 8.34756097560976 3.0
    vertex 36.0 12.100000000000003 0.0
    vertex 31.58536585365854 8.34756097560976 0.0
  endloop
endfacet
facet normal -0.6476484200955405 0.7619393177594593 0.0
  outer loop
    vertex 36.0 12.100000000000003 0.0
    vertex 31.58536585365854 8.34756097560976 3.0
    vertex 36.0 12.100000000000003 3.0
  endloop
endfacet
facet normal -1.0 0.0 0.0
  outer loop
    vertex 36.0 19.499999999999996 3.0
    vertex 36.0 12.100000000000003 0.0
    vertex 36.0 12.100000000000003 3.0
  endloop
endfacet
facet normal -1.0 0.0 0.0
  outer loop
    vertex 36.0 12.100000000000003 0.0
    vertex 36.0 19.499999999999996 3.0
    vertex 36.0 19.499999999999996 0.0
  endloop
endfacet
facet normal -0.6000000000000004 -0.7999999999999998 -0.0
  outer loop
    vertex 36.0 19.499999999999996 3.0
    vertex 31.58536585365854 22.8109756097561 0.0
    vertex 36.0 19.499999999999996 0.0
  endloop
endfacet
facet normal -0.6000000000000004 -0.7999999999999998 -0.0
  outer loop
    vertex 31.58536585365854 22.8109756097561 0.0
    vertex 36.0 19.499999999999996 3.0
    vertex 31.58536585365854 22.8109756097561 3.0
  endloop
endfacet
facet normal -0.9823385664224749 0.18711210788999486 0.0
  outer loop
    vertex 19.619047619047617 25.000000000000004 3.0
    vertex 18.0 16.499999999999996 0.0
    vertex 18.0 16.499999999999996 3.0
  endloop
endfacet
facet normal -0.9823385664224749 0.18711210788999486 0.0
  outer loop
    vertex 18.0 16.499999999999996 0.0
    vertex 19.619047619047617 25.000000000000004 3.0
    vertex 19.619047619047617 25.000000000000004 0.0
  endloop
endfacet
facet normal -0.0 -1.0 -0.0
  outer loop
    vertex 19.619047619047617 25.000000000000004 3.0
    vertex 13.5 25.000000000000004 0.0
    vertex 19.619047619047617 25.000000000000004 0.0
  endloop
endfacet
facet normal -0.0 -1.0 -0.0
  outer loop
    vertex 13.5 25.000000000000004 0.0
    vertex 19.619047619047617 25.000000000000004 3.0
    vertex 13.5 25.000000000000004 3.0
  endloop
endfacet
facet normal 1.0 0.0 0.0
  outer loop
    vertex 13.5 25.000000000000004 0.0
    vertex 13.5 16.499999999999996 3.0
    vertex 13.5 16.499999999999996 0.0
  endloop
endfacet
facet normal 1.0 0.0 0.0
  outer loop
    vertex 13.5 16.499999999999996 3.0
    vertex 13.5 25.000000000000004 0.0
    vertex 13.5 25.000000000000004 3.0
  endloop
endfacet
facet normal -0.0 1.0 0.0
  outer loop
    vertex 13.5 16.499999999999996 3.0
    vertex 18.0 16.499999999999996 0.0
    vertex 13.5 16.499999999999996 0.0
  endloop
endfacet
facet normal -0.0 1.0 0.0
  outer loop
    vertex 18.0 16.499999999999996 0.0
    vertex 13.5 16.499999999999996 3.0
    vertex 18.0 16.499999999999996 3.0
  endloop
endfacet
facet normal 0.9795114372846355 0.20138854045994684 0.0
  outer loop
    vertex 19.875 14.499999999999996 0.0
    vertex 21.9156525704423 4.57469577113269 3.0
    vertex 21.9156525704423 4.57469577113269 0.0
  endloop
endfacet
facet normal 0.9795114372846355 0.20138854045994684 0.0
  outer loop
    vertex 21.9156525704423 4.57469577113269 3.0
    vertex 19.875 14.499999999999996 0.0
    vertex 19.875 14.499999999999996 3.0
  endloop
endfacet
facet normal -0.28734788556634555 0.9578262852211513 0.0
  outer loop
    vertex 21.9156525704423 4.57469577113269 3.0
    vertex 30.0 7.000000000000001 0.0
    vertex 21.9156525704423 4.57469577113269 0.0
  endloop
endfacet
facet normal -0.28734788556634555 0.9578262852211513 0.0
  outer loop
    vertex 30.0 7.000000000000001 0.0
    vertex 21.9156525704423 4.57469577113269 3.0
    vertex 30.0 7.000000000000001 3.0
  endloop
endfacet
facet normal -0.7926239891046001 -0.6097107608496924 -0.0
  outer loop
    vertex 24.230769230769234 14.499999999999996 3.0
    vertex 30.0 7.000000000000001 0.0
    vertex 30.0 7.000000000000001 3.0
  endloop
endfacet
facet normal -0.7926239891046001 -0.6097107608496924 -0.0
  outer loop
    vertex 30.0 7.000000000000001 0.0
    vertex 24.230769230769234 14.499999999999996 3.0
    vertex 24.230769230769234 14.499999999999996 0.0
  endloop
endfacet
facet normal -0.0 -1.0 -0.0
  outer loop
    vertex 24.230769230769234 14.499999999999996 3.0
    vertex 19.875 14.499999999999996 0.0
    vertex 24.230769230769234 14.499999999999996 0.0
  endloop
endfacet
facet normal -0.0 -1.0 -0.0
  outer loop
    vertex 19.875 14.499999999999996 0.0
    vertex 24.230769230769234 14.499999999999996 3.0
    vertex 19.875 14.499999999999996 3.0
  endloop
endfacet
facet normal -0.0 1.0 0.0
  outer loop
    vertex 13.5 6.0 3.0
    vertex 19.619047619047617 6.0 0.0
    vertex 13.5 6.0 0.0
  endloop
endfacet
facet normal -0.0 1.0 0.0
  outer loop
    vertex 19.619047619047617 6.0 0.0
    vertex 13.5 6.0 3.0
    vertex 19.619047619047617 6.0 3.0
  endloop
endfacet
facet normal -0.9823385664224747 -0.18711210788999508 -0.0
  outer loop
    vertex 18.0 14.499999999999996 3.0
    vertex 19.619047619047617 6.0 0.0
    vertex 19.619047619047617 6.0 3.0
  endloop
endfacet
facet normal -0.9823385664224747 -0.18711210788999508 -0.0
  outer loop
    vertex 19.619047619047617 6.0 0.0
    vertex 18.0 14.499999999999996 3.0
    vertex 18.0 14.499999999999996 0.0
  endloop
endfacet
facet normal -0.0 -1.0 -0.0
  outer loop
    vertex 18.0 14.499999999999996 3.0
    vertex 13.5 14.499999999999996 0.0
    vertex 18.0 14.499999999999996 0.0
  endloop
endfacet
facet normal -0.0 -1.0 -0.0
  outer loop
    vertex 13.5 14.499999999999996 0.0
    vertex 18.0 14.499999999999996 3.0
    vertex 13.5 14.499999999999996 3.0
  endloop
endfacet
facet normal 1.0 0.0 0.0
  outer loop
    vertex 13.5 14.499999999999996 0.0
    vertex 13.5 6.0 3.0
    vertex 13.5 6.0 0.0
  endloop
endfacet
facet normal 1.0 0.0 0.0
  outer loop
    vertex 13.5 6.0 3.0
    vertex 13.5 14.499999999999996 0.0
    vertex 13.5 14.499999999999996 3.0
  endloop
endfacet
facet normal -0.2873478855663459 -0.9578262852211512 -0.0
  outer loop
    vertex 30.0 24.0 3.0
    vertex 21.9156525704423 26.425304228867315 0.0
    vertex 30.0 24.0 0.0
  endloop
endfacet
facet normal -0.2873478855663459 -0.9578262852211512 -0.0
  outer loop
    vertex 21.9156525704423 26.425304228867315 0.0
    vertex 30.0 24.0 3.0
    vertex 21.9156525704423 26.425304228867315 3.0
  endloop
endfacet
facet normal 0.9818788991043682 -0.18950943906199985 0.0
  outer loop
    vertex 21.9156525704423 26.425304228867315 0.0
    vertex 20.0 16.499999999999996 3.0
    vertex 20.0 16.499999999999996 0.0
  endloop
endfacet
facet normal 0.9818788991043682 -0.18950943906199985 0.0
  outer loop
    vertex 20.0 16.499999999999996 3.0
    vertex 21.9156525704423 26.425304228867315 0.0
    vertex 21.9156525704423 26.425304228867315 3.0
  endloop
endfacet
facet normal -6.665375322385938e-16 1.0 0.0
  outer loop
    vertex 20.0 16.499999999999996 3.0
    vertex 24.230769230769234 16.499999999999996 0.0
    vertex 20.0 16.499999999999996 0.0
  endloop
endfacet
facet normal -6.665375322385938e-16 1.0 0.0
  outer loop
    vertex 24.230769230769234 16.499999999999996 0.0
    vertex 20.0 16.499999999999996 3.0
    vertex 24.230769230769234 16.499999999999996 3.0
  endloop
endfacet
facet normal -0.7926239891046003 0.6097107608496923 0.0
  outer loop
    vertex 30.0 24.0 3.0
    vertex 24.230769230769234 16.499999999999996 0.0
    vertex 24.230769230769234 16.499999999999996 3.0
  endloop
endfacet
facet normal -0.7926239891046003 0.6097107608496923 0.0
  outer loop
    vertex 24.230769230769234 16.499999999999996 0.0
    vertex 30.0 24.0 3.0
    vertex 30.0 24.0 0.0
  endloop
endfacet
facet normal -1.9367113248842073e-32 9.455645480605905e-34 1.0
  outer loop
    vertex 13.5 0.0 3.0
    vertex 11.500000000000004 12.500000000000005 3.0
    vertex 11.500000000000002 0.0 3.0
  endloop
endfacet
facet normal -1.9367113248842073e-32 9.455645480605905e-34 1.0
  outer loop
    vertex 20.000000000000004 0.0 3.0
    vertex 16.0 4.0 3.0
    vertex 16.0 0.0 3.0
  endloop
endfacet
facet normal -1.9367113248842073e-32 9.455645480605905e-34 1.0
  outer loop
    vertex 16.0 4.0 3.0
    vertex 20.000000000000004 0.0 3.0
    vertex 19.619047619047617 6.0 3.0
  endloop
endfacet
facet normal -1.9367113248842073e-32 9.455645480605905e-34 1.0
  outer loop
    vertex 19.619047619047617 6.0 3.0
    vertex 20.000000000000004 0.0 3.0
    vertex 19.619047619047617 25.000000000000004 3.0
  endloop
endfacet
facet normal -1.9367113248842073e-32 9.455645480605905e-34 1.0
  outer loop
    vertex 19.619047619047617 25.000000000000004 3.0
    vertex 20.000000000000004 0.0 3.0
    vertex 19.875 14.499999999999996 3.0
  endloop
endfacet
facet normal -1.9367113248842073e-32 9.455645480605905e-34 1.0
  outer loop
    vertex 19.875 14.499999999999996 3.0
    vertex 20.000000000000004 0.0 3.0
    vertex 21.9156525704423 4.57469577113269 3.0
  endloop
endfacet
facet normal -1.9367113248842073e-32 9.455645480605905e-34 1.0
  outer loop
    vertex 21.9156525704423 4.57469577113269 3.0
    vertex 20.000000000000004 0.0 3.0
    vertex 30.0 3.0 3.0
  endloop
endfacet
facet normal -1.9367113248842073e-32 9.455645480605905e-34 1.0
  outer loop
    vertex 21.9156525704423 4.57469577113269 3.0
    vertex 30.0 3.0 3.0
    vertex 30.0 7.000000000000001 3.0
  endloop
endfacet
facet normal -1.9367113248842073e-32 9.455645480605905e-34 1.0
  outer loop
    vertex 30.0 7.000000000000001 3.0
    vertex 30.0 3.0 3.0
    vertex 37.6 8.699999999999998 3.0
  endloop
endfacet
facet normal -1.9367113248842073e-32 9.455645480605905e-34 1.0
  outer loop
    vertex 30.0 7.000000000000001 3.0
    vertex 37.6 8.699999999999998 3.0
    vertex 31.58536585365854 8.34756097560976 3.0
  endloop
endfacet
facet normal -1.9367113248842073e-32 9.455645480605905e-34 1.0
  outer loop
    vertex 31.58536585365854 8.34756097560976 3.0
    vertex 37.6 8.699999999999998 3.0
    vertex 36.0 12.100000000000003 3.0
  endloop
endfacet
facet normal -1.9367113248842073e-32 9.455645480605905e-34 1.0
  outer loop
    vertex 36.0 12.100000000000003 3.0
    vertex 37.6 8.699999999999998 3.0
    vertex 36.0 19.499999999999996 3.0
  endloop
endfacet
facet normal -1.9367113248842073e-32 9.455645480605905e-34 1.0
  outer loop
    vertex 24.230769230769234 14.499999999999996 3.0
    vertex 20.0 16.499999999999996 3.0
    vertex 19.875 14.499999999999996 3.0
  endloop
endfacet
facet normal -1.9367113248842073e-32 9.455645480605905e-34 1.0
  outer loop
    vertex 20.0 16.499999999999996 3.0
    vertex 24.230769230769234 14.499999999999996 3.0
    vertex 24.230769230769234 16.499999999999996 3.0
  endloop
endfacet
facet normal -1.9367113248842073e-32 9.455645480605905e-34 1.0
  outer loop
    vertex 24.230769230769234 16.499999999999996 3.0
    vertex 24.230769230769234 14.499999999999996 3.0
    vertex 30.0 24.0 3.0
  endloop
endfacet
facet normal -1.9367113248842073e-32 9.455645480605905e-34 1.0
  outer loop
    vertex 30.0 24.0 3.0
    vertex 24.230769230769234 14.499999999999996 3.0
    vertex 25.938228438228442 15.469696969696965 3.0
  endloop
endfacet
facet normal -1.9367113248842073e-32 9.455645480605905e-34 1.0
  outer loop
    vertex 30.0 24.0 3.0
    vertex 25.938228438228442 15.469696969696965 3.0
    vertex 31.58536585365854 22.8109756097561 3.0
  endloop
endfacet
facet normal -1.9367113248842073e-32 9.455645480605905e-34 1.0
  outer loop
    vertex 30.0 24.0 3.0
    vertex 31.58536585365854 22.8109756097561 3.0
    vertex 30.0 28.0 3.0
  endloop
endfacet
facet normal -1.9367113248842073e-32 9.455645480605905e-34 1.0
  outer loop
    vertex 30.0 28.0 3.0
    vertex 31.58536585365854 22.8109756097561 3.0
    vertex 37.6 22.299999999999997 3.0
  endloop
endfacet
facet normal -1.9367113248842073e-32 9.455645480605905e-34 1.0
  outer loop
    vertex 37.6 22.299999999999997 3.0
    vertex 31.58536585365854 22.8109756097561 3.0
    vertex 36.0 19.499999999999996 3.0
  endloop
endfacet
facet normal -1.9367113248842073e-32 9.455645480605905e-34 1.0
  outer loop
    vertex 37.6 22.299999999999997 3.0
    vertex 36.0 19.499999999999996 3.0
    vertex 37.6 8.699999999999998 3.0
  endloop
endfacet
facet normal -1.9367113248842073e-32 9.455645480605905e-34 1.0
  outer loop
    vertex 37.6 22.299999999999997 3.0
    vertex 37.6 8.699999999999998 3.0
    vertex 37.95980594182684 8.992235930855205 3.0
  endloop
endfacet
facet normal -1.9367113248842073e-32 9.455645480605905e-34 1.0
  outer loop
    vertex 37.6 22.299999999999997 3.0
    vertex 37.95980594182684 8.992235930855205 3.0
    vertex 37.95980594182684 22.007764069144795 3.0
  endloop
endfacet
facet normal -1.9367113248842073e-32 9.455645480605905e-34 1.0
  outer loop
    vertex 37.95980594182684 22.007764069144795 3.0
    vertex 37.95980594182684 8.992235930855205 3.0
    vertex 38.29597820481293 9.311375970109959 3.0
  endloop
endfacet
facet normal -1.9367113248842073e-32 9.455645480605905e-34 1.0
  outer loop
    vertex 37.95980594182684 22.007764069144795 3.0
    vertex 38.29597820481293 9.311375970109959 3.0
    vertex 38.29597820481293 21.68862402989004 3.0
  endloop
endfacet
facet normal -1.9367113248842073e-32 9.455645480605905e-34 1.0
  outer loop
    vertex 38.29597820481293 21.68862402989004 3.0
    vertex 38.29597820481293 9.311375970109959 3.0
    vertex 38.606510380711164 9.655515364525394 3.0
  endloop
endfacet
facet normal -1.9367113248842073e-32 9.455645480605905e-34 1.0
  outer loop
    vertex 38.29597820481293 21.68862402989004 3.0
    vertex 38.606510380711164 9.655515364525394 3.0
    vertex 38.60651038071116 21.344484635474604 3.0
  endloop
endfacet
facet normal -1.9367113248842073e-32 9.455645480605905e-34 1.0
  outer loop
    vertex 38.60651038071116 21.344484635474604 3.0
    vertex 38.606510380711164 9.655515364525394 3.0
    vertex 38.889549091395764 20.977399845118597 3.0
  endloop
endfacet
facet normal -1.9367113248842073e-32 9.455645480605905e-34 1.0
  outer loop
    vertex 38.889549091395764 20.977399845118597 3.0
    vertex 38.606510380711164 9.655515364525394 3.0
    vertex 38.889549091395764 10.022600154881397 3.0
  endloop
endfacet
facet normal -1.9367113248842073e-32 9.455645480605905e-34 1.0
  outer loop
    vertex 38.889549091395764 20.977399845118597 3.0
    vertex 38.889549091395764 10.022600154881397 3.0
    vertex 39.14340505055167 10.410439434812847 3.0
  endloop
endfacet
facet normal -1.9367113248842073e-32 9.455645480605905e-34 1.0
  outer loop
    vertex 38.889549091395764 20.977399845118597 3.0
    vertex 39.14340505055167 10.410439434812847 3.0
    vertex 39.14340505055167 20.58956056518715 3.0
  endloop
endfacet
facet normal -1.9367113248842073e-32 9.455645480605905e-34 1.0
  outer loop
    vertex 39.14340505055167 20.58956056518715 3.0
    vertex 39.14340505055167 10.410439434812847 3.0
    vertex 39.3665631459995 20.183281572999746 3.0
  endloop
endfacet
facet normal -1.9367113248842073e-32 9.455645480605905e-34 1.0
  outer loop
    vertex 39.3665631459995 20.183281572999746 3.0
    vertex 39.14340505055167 10.410439434812847 3.0
    vertex 39.3665631459995 10.816718427000252 3.0
  endloop
endfacet
facet normal -1.9367113248842073e-32 9.455645480605905e-34 1.0
  outer loop
    vertex 39.3665631459995 20.183281572999746 3.0
    vertex 39.3665631459995 10.816718427000252 3.0
    vertex 39.55769148248072 11.239012298670952 3.0
  endloop
endfacet
facet normal -1.9367113248842073e-32 9.455645480605905e-34 1.0
  outer loop
    vertex 39.3665631459995 20.183281572999746 3.0
    vertex 39.55769148248072 11.239012298670952 3.0
    vertex 39.55769148248072 19.760987701329046 3.0
  endloop
endfacet
facet normal -1.9367113248842073e-32 9.455645480605905e-34 1.0
  outer loop
    vertex 39.55769148248072 19.760987701329046 3.0
    vertex 39.55769148248072 11.239012298670952 3.0
    vertex 39.71564933093234 11.67480063395455 3.0
  endloop
endfacet
facet normal -1.9367113248842073e-32 9.455645480605905e-34 1.0
  outer loop
    vertex 39.55769148248072 19.760987701329046 3.0
    vertex 39.71564933093234 11.67480063395455 3.0
    vertex 39.71564933093234 19.32519936604545 3.0
  endloop
endfacet
facet normal -1.9367113248842073e-32 9.455645480605905e-34 1.0
  outer loop
    vertex 39.71564933093234 19.32519936604545 3.0
    vertex 39.71564933093234 11.67480063395455 3.0
    vertex 39.839493936806385 12.121482476715833 3.0
  endloop
endfacet
facet normal -1.9367113248842073e-32 9.455645480605905e-34 1.0
  outer loop
    vertex 39.71564933093234 19.32519936604545 3.0
    vertex 39.839493936806385 12.121482476715833 3.0
    vertex 39.83949393680638 18.878517523284167 3.0
  endloop
endfacet
facet normal -1.9367113248842073e-32 9.455645480605905e-34 1.0
  outer loop
    vertex 39.83949393680638 18.878517523284167 3.0
    vertex 39.839493936806385 12.121482476715833 3.0
    vertex 39.928486146799784 18.423608145916322 3.0
  endloop
endfacet
facet normal -1.9367113248842073e-32 9.455645480605905e-34 1.0
  outer loop
    vertex 39.928486146799784 18.423608145916322 3.0
    vertex 39.839493936806385 12.121482476715833 3.0
    vertex 39.92848614679979 12.576391854083678 3.0
  endloop
endfacet
facet normal -1.9367113248842073e-32 9.455645480605905e-34 1.0
  outer loop
    vertex 39.928486146799784 18.423608145916322 3.0
    vertex 39.92848614679979 12.576391854083678 3.0
    vertex 39.982094820411945 17.963186311974596 3.0
  endloop
endfacet
facet normal -1.9367113248842073e-32 9.455645480605905e-34 1.0
  outer loop
    vertex 39.982094820411945 17.963186311974596 3.0
    vertex 39.92848614679979 12.576391854083678 3.0
    vertex 39.982094820411945 13.0368136880254 3.0
  endloop
endfacet
facet normal -1.9367113248842073e-32 9.455645480605905e-34 1.0
  outer loop
    vertex 39.982094820411945 17.963186311974596 3.0
    vertex 39.982094820411945 13.0368136880254 3.0
    vertex 40.0 13.5 3.0
  endloop
endfacet
facet normal -1.9367113248842073e-32 9.455645480605905e-34 1.0
  outer loop
    vertex 39.982094820411945 17.963186311974596 3.0
    vertex 40.0 13.5 3.0
    vertex 40.0 17.5 3.0
  endloop
endfacet
facet normal -1.9367113248842073e-32 9.455645480605905e-34 1.0
  outer loop
    vertex 40.0 17.5 3.0
    vertex 40.0 13.5 3.0
    vertex 40.0 14.499999999999998 3.0
  endloop
endfacet
facet normal -1.9367113248842073e-32 9.455645480605905e-34 1.0
  outer loop
    vertex 19.619047619047617 25.000000000000004 3.0
    vertex 13.5 27.0 3.0
    vertex 13.5 25.000000000000004 3.0
  endloop
endfacet
facet normal -1.9367113248842073e-32 9.455645480605905e-34 1.0
  outer loop
    vertex 13.5 27.0 3.0
    vertex 19.619047619047617 25.000000000000004 3.0
    vertex 16.0 27.0 3.0
  endloop
endfacet
facet normal -1.9367113248842073e-32 9.455645480605905e-34 1.0
  outer loop
    vertex 16.0 27.0 3.0
    vertex 19.619047619047617 25.000000000000004 3.0
    vertex 16.0 31.0 3.0
  endloop
endfacet
facet normal -1.9367113248842073e-32 9.455645480605905e-34 1.0
  outer loop
    vertex 16.0 31.0 3.0
    vertex 19.619047619047617 25.000000000000004 3.0
    vertex 20.000000000000004 31.0 3.0
  endloop
endfacet
facet normal -1.9367113248842073e-32 9.455645480605905e-34 1.0
  outer loop
    vertex 20.000000000000004 31.0 3.0
    vertex 19.619047619047617 25.000000000000004 3.0
    vertex 19.875 14.499999999999996 3.0
  endloop
endfacet
facet normal -1.9367113248842073e-32 9.455645480605905e-34 1.0
  outer loop
    vertex 20.000000000000004 31.0 3.0
    vertex 19.875 14.499999999999996 3.0
    vertex 20.0 16.499999999999996 3.0
  endloop
endfacet
facet normal -1.9367113248842073e-32 9.455645480605905e-34 1.0
  outer loop
    vertex 20.000000000000004 31.0 3.0
    vertex 20.0 16.499999999999996 3.0
    vertex 21.9156525704423 26.425304228867315 3.0
  endloop
endfacet
facet normal -1.9367113248842073e-32 9.455645480605905e-34 1.0
  outer loop
    vertex 20.000000000000004 31.0 3.0
    vertex 21.9156525704423 26.425304228867315 3.0
    vertex 30.0 28.0 3.0
  endloop
endfacet
facet normal -1.9367113248842073e-32 9.455645480605905e-34 1.0
  outer loop
    vertex 30.0 28.0 3.0
    vertex 21.9156525704423 26.425304228867315 3.0
    vertex 30.0 24.0 3.0
  endloop
endfacet
facet normal -1.9367113248842073e-32 9.455645480605905e-34 1.0
  outer loop
    vertex 30.0 7.000000000000001 3.0
    vertex 25.938228438228442 15.469696969696965 3.0
    vertex 24.230769230769234 14.499999999999996 3.0
  endloop
endfacet
facet normal -1.9367113248842073e-32 9.455645480605905e-34 1.0
  outer loop
    vertex 25.938228438228442 15.469696969696965 3.0
    vertex 30.0 7.000000000000001 3.0
    vertex 31.58536585365854 8.34756097560976 3.0
  endloop
endfacet
facet normal -1.9367113248842073e-32 9.455645480605905e-34 1.0
  outer loop
    vertex 18.0 14.499999999999996 3.0
    vertex 13.5 16.499999999999996 3.0
    vertex 13.5 14.499999999999996 3.0
  endloop
endfacet
facet normal -1.9367113248842073e-32 9.455645480605905e-34 1.0
  outer loop
    vertex 13.5 16.499999999999996 3.0
    vertex 18.0 14.499999999999996 3.0
    vertex 18.0 16.499999999999996 3.0
  endloop
endfacet
facet normal -1.9367113248842073e-32 9.455645480605905e-34 1.0
  outer loop
    vertex 18.0 16.499999999999996 3.0
    vertex 18.0 14.499999999999996 3.0
    vertex 19.619047619047617 6.0 3.0
  endloop
endfacet
facet normal -1.9367113248842073e-32 9.455645480605905e-34 1.0
  outer loop
    vertex 18.0 16.499999999999996 3.0
    vertex 19.619047619047617 6.0 3.0
    vertex 19.619047619047617 25.000000000000004 3.0
  endloop
endfacet
facet normal -1.9367113248842073e-32 9.455645480605905e-34 1.0
  outer loop
    vertex 16.0 4.0 3.0
    vertex 13.5 6.0 3.0
    vertex 13.5 3.9999999999999996 3.0
  endloop
endfacet
facet normal -1.9367113248842073e-32 9.455645480605905e-34 1.0
  outer loop
    vertex 13.5 6.0 3.0
    vertex 16.0 4.0 3.0
    vertex 19.619047619047617 6.0 3.0
  endloop
endfacet
facet normal -1.9367113248842073e-32 9.455645480605905e-34 1.0
  outer loop
    vertex 11.500000000000004 12.500000000000005 3.0
    vertex 1.0000000000000018 4.0 3.0
    vertex 1.0000000000000018 2.0000000000000004 3.0
  endloop
endfacet
facet normal -1.9367113248842073e-32 9.455645480605905e-34 1.0
  outer loop
    vertex 1.0000000000000018 4.0 3.0
    vertex 11.500000000000004 12.500000000000005 3.0
    vertex 9.5 14.499999999999996 3.0
  endloop
endfacet
facet normal -1.9367113248842073e-32 9.455645480605905e-34 1.0
  outer loop
    vertex 9.5 14.499999999999996 3.0
    vertex 11.500000000000004 12.500000000000005 3.0
    vertex 10.530303030303033 15.469696969696965 3.0
  endloop
endfacet
facet normal -1.9367113248842073e-32 9.455645480605905e-34 1.0
  outer loop
    vertex 10.530303030303033 15.469696969696965 3.0
    vertex 11.500000000000004 12.500000000000005 3.0
    vertex 11.499999999999998 18.499999999999993 3.0
  endloop
endfacet
facet normal -1.9367113248842073e-32 9.455645480605905e-34 1.0
  outer loop
    vertex 11.499999999999998 18.499999999999993 3.0
    vertex 11.500000000000004 12.500000000000005 3.0
    vertex 11.500000000000002 31.0 3.0
  endloop
endfacet
facet normal -1.9367113248842073e-32 9.455645480605905e-34 1.0
  outer loop
    vertex 11.500000000000002 31.0 3.0
    vertex 11.500000000000004 12.500000000000005 3.0
    vertex 13.5 31.0 3.0
  endloop
endfacet
facet normal -1.9367113248842073e-32 9.455645480605905e-34 1.0
  outer loop
    vertex 13.5 31.0 3.0
    vertex 11.500000000000004 12.500000000000005 3.0
    vertex 13.5 0.0 3.0
  endloop
endfacet
facet normal -1.9367113248842073e-32 9.455645480605905e-34 1.0
  outer loop
    vertex 13.5 31.0 3.0
    vertex 13.5 0.0 3.0
    vertex 13.5 3.9999999999999996 3.0
  endloop
endfacet
facet normal -1.9367113248842073e-32 9.455645480605905e-34 1.0
  outer loop
    vertex 13.5 31.0 3.0
    vertex 13.5 3.9999999999999996 3.0
    vertex 13.5 6.0 3.0
  endloop
endfacet
facet normal -1.9367113248842073e-32 9.455645480605905e-34 1.0
  outer loop
    vertex 13.5 31.0 3.0
    vertex 13.5 6.0 3.0
    vertex 13.5 14.499999999999996 3.0
  endloop
endfacet
facet normal -1.9367113248842073e-32 9.455645480605905e-34 1.0
  outer loop
    vertex 13.5 31.0 3.0
    vertex 13.5 14.499999999999996 3.0
    vertex 13.5 16.499999999999996 3.0
  endloop
endfacet
facet normal -1.9367113248842073e-32 9.455645480605905e-34 1.0
  outer loop
    vertex 13.5 31.0 3.0
    vertex 13.5 16.499999999999996 3.0
    vertex 13.5 25.000000000000004 3.0
  endloop
endfacet
facet normal -1.9367113248842073e-32 9.455645480605905e-34 1.0
  outer loop
    vertex 13.5 31.0 3.0
    vertex 13.5 25.000000000000004 3.0
    vertex 13.5 27.0 3.0
  endloop
endfacet
facet normal -1.9367113248842073e-32 9.455645480605905e-34 1.0
  outer loop
    vertex 10.530303030303033 15.469696969696965 3.0
    vertex 1.0000000000000004 27.0 3.0
    vertex -1.0000000000000002 27.0 3.0
  endloop
endfacet
facet normal -1.9367113248842073e-32 9.455645480605905e-34 1.0
  outer loop
    vertex 1.0000000000000004 27.0 3.0
    vertex 10.530303030303033 15.469696969696965 3.0
    vertex 1.0000000000000004 29.000000000000004 3.0
  endloop
endfacet
facet normal -1.9367113248842073e-32 9.455645480605905e-34 1.0
  outer loop
    vertex 1.0000000000000004 29.000000000000004 3.0
    vertex 10.530303030303033 15.469696969696965 3.0
    vertex 11.499999999999998 18.499999999999993 3.0
  endloop
endfacet
facet normal -1.9367113248842073e-32 9.455645480605905e-34 1.0
  outer loop
    vertex 9.5 14.499999999999996 3.0
    vertex -1.0000000000000002 3.9999999999999996 3.0
    vertex 1.0000000000000018 4.0 3.0
  endloop
endfacet
facet normal 0.993289733528876 -0.1156525194975648 -0.0
  outer loop
    vertex 39.982094820411945 13.0368136880254 0.0
    vertex 39.92848614679979 12.576391854083678 3.0
    vertex 39.92848614679979 12.576391854083678 0.0
  endloop
endfacet
facet normal 0.993289733528876 -0.1156525194975648 -0.0
  outer loop
    vertex 39.92848614679979 12.576391854083678 3.0
    vertex 39.982094820411945 13.0368136880254 0.0
    vertex 39.982094820411945 13.0368136880254 3.0
  endloop
endfacet
facet normal 0.981397451022466 -0.1919870910415767 -0.0
  outer loop
    vertex 39.92848614679979 12.576391854083678 0.0
    vertex 39.839493936806385 12.121482476715833 3.0
    vertex 39.839493936806385 12.121482476715833 0.0
  endloop
endfacet
facet normal 0.981397451022466 -0.1919870910415767 -0.0
  outer loop
    vertex 39.839493936806385 12.121482476715833 3.0
    vertex 39.92848614679979 12.576391854083678 0.0
    vertex 39.92848614679979 12.576391854083678 3.0
  endloop
endfacet
facet normal 0.9636478026467815 -0.26717580813769376 -0.0
  outer loop
    vertex 39.839493936806385 12.121482476715833 0.0
    vertex 39.71564933093234 11.67480063395455 3.0
    vertex 39.71564933093234 11.67480063395455 0.0
  endloop
endfacet
facet normal 0.9636478026467815 -0.26717580813769376 -0.0
  outer loop
    vertex 39.71564933093234 11.67480063395455 3.0
    vertex 39.839493936806385 12.121482476715833 0.0
    vertex 39.839493936806385 12.121482476715833 3.0
  endloop
endfacet
facet normal 0.9401467252824216 -0.3407699149583764 -0.0
  outer loop
    vertex 39.71564933093234 11.67480063395455 0.0
    vertex 39.55769148248072 11.239012298670952 3.0
    vertex 39.55769148248072 11.239012298670952 0.0
  endloop
endfacet
facet normal 0.9401467252824216 -0.3407699149583764 -0.0
  outer loop
    vertex 39.55769148248072 11.239012298670952 3.0
    vertex 39.71564933093234 11.67480063395455 0.0
    vertex 39.71564933093234 11.67480063395455 3.0
  endloop
endfacet
facet normal 0.9110344825996309 -0.4123301729372018 -0.0
  outer loop
    vertex 39.55769148248072 11.239012298670952 0.0
    vertex 39.3665631459995 10.816718427000252 3.0
    vertex 39.3665631459995 10.816718427000252 0.0
  endloop
endfacet
facet normal 0.9110344825996309 -0.4123301729372018 -0.0
  outer loop
    vertex 39.3665631459995 10.816718427000252 3.0
    vertex 39.55769148248072 11.239012298670952 0.0
    vertex 39.55769148248072 11.239012298670952 3.0
  endloop
endfacet
facet normal 0.8764848279095435 -0.4814294823173775 -0.0
  outer loop
    vertex 39.3665631459995 10.816718427000252 0.0
    vertex 39.14340505055167 10.410439434812847 3.0
    vertex 39.14340505055167 10.410439434812847 0.0
  endloop
endfacet
facet normal 0.8764848279095435 -0.4814294823173775 -0.0
  outer loop
    vertex 39.14340505055167 10.410439434812847 3.0
    vertex 39.3665631459995 10.816718427000252 0.0
    vertex 39.3665631459995 10.816718427000252 3.0
  endloop
endfacet
facet normal 0.8367039671361518 -0.5476554312509151 -0.0
  outer loop
    vertex 39.14340505055167 10.410439434812847 0.0
    vertex 38.889549091395764 10.022600154881397 3.0
    vertex 38.889549091395764 10.022600154881397 0.0
  endloop
endfacet
facet normal 0.8367039671361518 -0.5476554312509151 -0.0
  outer loop
    vertex 38.889549091395764 10.022600154881397 3.0
    vertex 39.14340505055167 10.410439434812847 0.0
    vertex 39.14340505055167 10.410439434812847 3.0
  endloop
endfacet
facet normal 0.7919293280982233 -0.6106127572348098 -0.0
  outer loop
    vertex 38.889549091395764 10.022600154881397 0.0
    vertex 38.606510380711164 9.655515364525394 3.0
    vertex 38.606510380711164 9.655515364525394 0.0
  endloop
endfacet
facet normal 0.7919293280982233 -0.6106127572348098 -0.0
  outer loop
    vertex 38.606510380711164 9.655515364525394 3.0
    vertex 38.889549091395764 10.022600154881397 0.0
    vertex 38.889549091395764 10.022600154881397 3.0
  endloop
endfacet
facet normal 0.7424281434467401 -0.6699257061930276 -0.0
  outer loop
    vertex 38.606510380711164 9.655515364525394 0.0
    vertex 38.29597820481293 9.311375970109959 3.0
    vertex 38.29597820481293 9.311375970109959 0.0
  endloop
endfacet
facet normal 0.7424281434467401 -0.6699257061930276 -0.0
  outer loop
    vertex 38.29597820481293 9.311375970109959 3.0
    vertex 38.606510380711164 9.655515364525394 0.0
    vertex 38.606510380711164 9.655515364525394 3.0
  endloop
endfacet
facet normal 0.6884958557153735 -0.7252402751245657 0.0
  outer loop
    vertex 38.29597820481293 9.311375970109959 3.0
    vertex 37.95980594182684 8.992235930855205 0.0
    vertex 38.29597820481293 9.311375970109959 0.0
  endloop
endfacet
facet normal 0.6884958557153735 -0.7252402751245657 0.0
  outer loop
    vertex 37.95980594182684 8.992235930855205 0.0
    vertex 38.29597820481293 9.311375970109959 3.0
    vertex 37.95980594182684 8.992235930855205 3.0
  endloop
endfacet
facet normal 0.6010709305016445 -0.7991939410506973 -0.0016676611592463207
  outer loop
    vertex 37.95980594182684 8.992235930855205 3.0
    vertex 30.0 3.0 0.0
    vertex 37.95980594182684 8.992235930855205 0.0
  endloop
endfacet
facet normal 0.6010709305016445 -0.7991939410506973 -0.0016676611592463207
  outer loop
    vertex 30.0 3.0 0.0
    vertex 37.95980594182684 8.992235930855205 3.0
    vertex 30.0 3.0 3.0
  endloop
endfacet
facet normal 0.6010709305016445 -0.7991939410506973 -0.0016676611592463207
  outer loop
    vertex 30.0 3.0 3.0
    vertex 37.95980594182684 8.992235930855205 3.0
    vertex 37.6 8.699999999999998 3.0
  endloop
endfacet
facet normal 0.6884958557153751 0.7252402751245641 -0.0
  outer loop
    vertex 37.95980594182684 22.007764069144795 3.0
    vertex 38.29597820481293 21.68862402989004 0.0
    vertex 37.95980594182684 22.007764069144795 0.0
  endloop
endfacet
facet normal 0.6884958557153751 0.7252402751245641 -0.0
  outer loop
    vertex 38.29597820481293 21.68862402989004 0.0
    vertex 37.95980594182684 22.007764069144795 3.0
    vertex 38.29597820481293 21.68862402989004 3.0
  endloop
endfacet
facet normal 0.7424281434467461 0.6699257061930208 0.0
  outer loop
    vertex 38.29597820481293 21.68862402989004 0.0
    vertex 38.60651038071116 21.344484635474604 3.0
    vertex 38.60651038071116 21.344484635474604 0.0
  endloop
endfacet
facet normal 0.7424281434467461 0.6699257061930208 0.0
  outer loop
    vertex 38.60651038071116 21.344484635474604 3.0
    vertex 38.29597820481293 21.68862402989004 0.0
    vertex 38.29597820481293 21.68862402989004 3.0
  endloop
endfacet
facet normal 0.7919293280982174 0.6106127572348174 0.0
  outer loop
    vertex 38.60651038071116 21.344484635474604 0.0
    vertex 38.889549091395764 20.977399845118597 3.0
    vertex 38.889549091395764 20.977399845118597 0.0
  endloop
endfacet
facet normal 0.7919293280982174 0.6106127572348174 0.0
  outer loop
    vertex 38.889549091395764 20.977399845118597 3.0
    vertex 38.60651038071116 21.344484635474604 0.0
    vertex 38.60651038071116 21.344484635474604 3.0
  endloop
endfacet
facet normal 0.8367039671361564 0.547655431250908 0.0
  outer loop
    vertex 38.889549091395764 20.977399845118597 0.0
    vertex 39.14340505055167 20.58956056518715 3.0
    vertex 39.14340505055167 20.58956056518715 0.0
  endloop
endfacet
facet normal 0.8367039671361564 0.547655431250908 0.0
  outer loop
    vertex 39.14340505055167 20.58956056518715 3.0
    vertex 38.889549091395764 20.977399845118597 0.0
    vertex 38.889549091395764 20.977399845118597 3.0
  endloop
endfacet
facet normal 0.8764848279095377 0.4814294823173882 0.0
  outer loop
    vertex 39.14340505055167 20.58956056518715 0.0
    vertex 39.3665631459995 20.183281572999746 3.0
    vertex 39.3665631459995 20.183281572999746 0.0
  endloop
endfacet
facet normal 0.8764848279095377 0.4814294823173882 0.0
  outer loop
    vertex 39.3665631459995 20.183281572999746 3.0
    vertex 39.14340505055167 20.58956056518715 0.0
    vertex 39.14340505055167 20.58956056518715 3.0
  endloop
endfacet
facet normal 0.911034482599632 0.4123301729371996 0.0
  outer loop
    vertex 39.3665631459995 20.183281572999746 0.0
    vertex 39.55769148248072 19.760987701329046 3.0
    vertex 39.55769148248072 19.760987701329046 0.0
  endloop
endfacet
facet normal 0.911034482599632 0.4123301729371996 0.0
  outer loop
    vertex 39.55769148248072 19.760987701329046 3.0
    vertex 39.3665631459995 20.183281572999746 0.0
    vertex 39.3665631459995 20.183281572999746 3.0
  endloop
endfacet
facet normal 0.9401467252824209 0.3407699149583784 0.0
  outer loop
    vertex 39.55769148248072 19.760987701329046 0.0
    vertex 39.71564933093234 19.32519936604545 3.0
    vertex 39.71564933093234 19.32519936604545 0.0
  endloop
endfacet
facet normal 0.9401467252824209 0.3407699149583784 0.0
  outer loop
    vertex 39.71564933093234 19.32519936604545 3.0
    vertex 39.55769148248072 19.760987701329046 0.0
    vertex 39.55769148248072 19.760987701329046 3.0
  endloop
endfacet
facet normal 0.9636478026467846 0.2671758081376825 0.0
  outer loop
    vertex 39.71564933093234 19.32519936604545 0.0
    vertex 39.83949393680638 18.878517523284167 3.0
    vertex 39.83949393680638 18.878517523284167 0.0
  endloop
endfacet
facet normal 0.9636478026467846 0.2671758081376825 0.0
  outer loop
    vertex 39.83949393680638 18.878517523284167 3.0
    vertex 39.71564933093234 19.32519936604545 0.0
    vertex 39.71564933093234 19.32519936604545 3.0
  endloop
endfacet
facet normal 0.981397451022466 0.1919870910415767 0.0
  outer loop
    vertex 39.83949393680638 18.878517523284167 0.0
    vertex 39.928486146799784 18.423608145916322 3.0
    vertex 39.928486146799784 18.423608145916322 0.0
  endloop
endfacet
facet normal 0.981397451022466 0.1919870910415767 0.0
  outer loop
    vertex 39.928486146799784 18.423608145916322 3.0
    vertex 39.83949393680638 18.878517523284167 0.0
    vertex 39.83949393680638 18.878517523284167 3.0
  endloop
endfacet
facet normal 0.9932897335288748 0.11565251949757613 -0.0
  outer loop
    vertex 39.928486146799784 18.423608145916322 0.0
    vertex 39.982094820411945 17.963186311974596 3.0
    vertex 39.982094820411945 17.963186311974596 0.0
  endloop
endfacet
facet normal 0.9932897335288748 0.11565251949757613 -0.0
  outer loop
    vertex 39.982094820411945 17.963186311974596 3.0
    vertex 39.928486146799784 18.423608145916322 0.0
    vertex 39.928486146799784 18.423608145916322 3.0
  endloop
endfacet
facet normal 0.9999900696422576 0.0041663189227703 -0.0015818987030656673
  outer loop
    vertex 39.982094820411945 17.963186311974596 0.0
    vertex 40.0 14.499999999999998 3.0
    vertex 40.0 14.499999999999998 0.0
  endloop
endfacet
facet normal 0.9999900696422576 0.0041663189227703 -0.0015818987030656673
  outer loop
    vertex 40.0 14.499999999999998 3.0
    vertex 39.982094820411945 17.963186311974596 0.0
    vertex 40.0 17.5 3.0
  endloop
endfacet
facet normal 0.9999900696422576 0.0041663189227703 -0.0015818987030656673
  outer loop
    vertex 40.0 17.5 3.0
    vertex 39.982094820411945 17.963186311974596 0.0
    vertex 39.982094820411945 17.963186311974596 3.0
  endloop
endfacet
endsolid 3d_leg_crew_c
